<svg width="148" height="40" viewBox="0 0 148 40" fill="none" xmlns="http://www.w3.org/2000/svg">
<path d="M13 10C13.5523 10 14 10.4477 14 11V25L19 30H14L9 25V10H13ZM30 15V30H26C25.4477 30 25 29.5523 25 29V15L20 10H25L30 15Z" fill="#57D998"/>
<path d="M12 25L17 30H12L7 25V11C7 10.4477 7.44772 10 8 10H12V25ZM22 29C22 29.5523 21.5523 30 21 30H17V11C17 10.4477 17.4477 10 18 10H22V29ZM32 15V29C32 29.5523 31.5523 30 31 30H27V15L22 10H27L32 15Z" fill="#5C5CE6"/>
<path d="M57.6 12.2V27.36H54.56V20.88H48.44V27.36H45.4V12.2H48.44V18.28H54.56V12.2H57.6ZM67.9494 24.88C70.8094 24.88 72.5894 22.92 72.5894 19.78C72.5894 16.64 70.8094 14.68 67.9494 14.68C65.0894 14.68 63.3094 16.64 63.3094 19.78C63.3094 22.92 65.0894 24.88 67.9494 24.88ZM67.9494 12.04C72.4494 12.04 75.6294 15.24 75.6294 19.78C75.6294 24.32 72.4494 27.52 67.9494 27.52C63.4494 27.52 60.2694 24.32 60.2694 19.78C60.2694 15.24 63.4494 12.04 67.9494 12.04ZM84.2098 19.8C85.6298 19.8 86.5298 18.96 86.5298 17.3C86.5298 15.64 85.6298 14.8 84.2098 14.8H81.3298V19.8H84.2098ZM90.2898 27.36H86.6498L83.3898 22.4H81.3298V27.36H78.2898V12.2H84.8698C87.6298 12.2 89.5698 14.14 89.5698 17.18C89.5698 18.98 89.0898 20.5 86.6698 21.86L90.2898 27.36ZM92.8891 12.2H95.9291V27.36H92.8891V12.2ZM109.629 12.2V14.8L102.109 24.76H109.629V27.36H98.3289V24.76L105.809 14.8H98.3289V12.2H109.629ZM119.178 24.88C122.038 24.88 123.818 22.92 123.818 19.78C123.818 16.64 122.038 14.68 119.178 14.68C116.318 14.68 114.538 16.64 114.538 19.78C114.538 22.92 116.318 24.88 119.178 24.88ZM119.178 12.04C123.678 12.04 126.858 15.24 126.858 19.78C126.858 24.32 123.678 27.52 119.178 27.52C114.678 27.52 111.498 24.32 111.498 19.78C111.498 15.24 114.678 12.04 119.178 12.04ZM142.359 12.2V27.36H138.919L132.499 17.26V27.36H129.459V12.2H132.899L139.319 22.32V12.2H142.359Z" fill="#0A131D"/>
</svg>
